<?xml version="1.0" encoding="UTF-8"?>
<!-- Generator: visioncortex VTracer 0.6.12 -->
<svg version="1.1" xmlns="http://www.w3.org/2000/svg" width="250" height="247" viewBox="0 0 250 247">
<defs><clipPath id="c"><circle cx="125" cy="120" r="116"/></clipPath></defs>
<g clip-path="url(#c)">
<path d="M100 7 C100 7.66 100 8.32 100 9 C98.84886719 9.11085938 97.69773437 9.22171875 96.51171875 9.3359375 C92.05163504 9.8987179 88.02891065 11.09799679 83.8125 12.625 C83.07418945 12.89151367 82.33587891 13.15802734 81.57519531 13.43261719 C69.25338825 18.01933395 59.06312481 24.69760073 49 33 C48.12472656 33.70898438 47.24945313 34.41796875 46.34765625 35.1484375 C25.33748305 53.00542515 11.91109893 79.67411852 9 107 C7.25276931 143.65234179 14.9559999 173.78331866 39.8046875 201.609375 C56.72837904 219.93043556 78.89215773 230.73702035 103 236 C103.58023926 236.1750708 104.16047852 236.3501416 104.75830078 236.53051758 C133.54283049 242.55890471 164.0951272 233.84106922 188.71875 219.19921875 C194.57644604 215.27316771 199.80059717 210.74972475 205 206 C205.72703125 205.35546875 206.4540625 204.7109375 207.203125 204.046875 C228.75284381 183.89876392 240.25850757 154.54148515 241.23828125 125.4765625 C241.8124181 95.03955103 233.33766439 68.02662932 213 45 C212.46246094 44.319375 211.92492187 43.63875 211.37109375 42.9375 C199.24270681 27.86060796 177.34821938 13.13075327 158 11 C158 10.34 158 9.68 158 9 C155.66738977 8.51707679 153.33400412 8.03860141 151 7.5625 C150.35160156 7.42779297 149.70320312 7.29308594 149.03515625 7.15429688 C140.55684866 5.43345227 132.39197288 4.80682616 123.75 4.8125 C122.73671631 4.81185547 121.72343262 4.81121094 120.67944336 4.81054688 C113.59625458 4.86056056 106.9089958 5.33589779 100 7 Z " fill="#133651" transform="translate(0,0)"/>

<path d="M0 0 C0 0.66 0 1.32 0 2 C1.0003125 2.10441406 2.000625 2.20882813 3.03125 2.31640625 C7.10915768 2.90700684 10.74876493 4.27044029 14.5 5.9375 C15.1914209 6.24469971 15.8828418 6.55189941 16.59521484 6.8684082 C43.68851729 19.37372031 65.01804217 42.34298351 76 70 C77.55048176 74.28755671 78.83988768 78.59157318 80 83 C80.15017578 83.54591797 80.15017578 83.54591797 80.91015625 86.30859375 C87.83587697 115.20334483 82.18143945 147.60479942 66.83886719 172.91552734 C61.15814601 181.72553832 54.34320164 189.54784878 47 197 C46.29617187 197.71671875 45.59234375 198.4334375 44.8671875 199.171875 C30.79874765 212.54491668 11.65171252 221.28116146 -7 226 C-7.33398804 226.08830078 -7.33398804 226.08830078 -9.02416992 226.53515625 C-17.12983897 228.4429737 -25.28549555 228.39725092 -33.5625 228.375 C-33.94130814 228.37472809 -33.94130814 228.37472809 -35.85830688 228.37335205 C-47.05893686 228.33631048 -57.35515759 227.78824215 -68 224 C-69.24523437 223.57589844 -70.49046875 223.15179688 -71.7734375 222.71484375 C-85.40732979 217.8048214 -98.11066187 210.55205099 -109 201 C-109.75539062 200.37609375 -110.51078125 199.7521875 -111.2890625 199.109375 C-121.65788336 190.34398005 -128.95596368 179.4571675 -136 168 C-136.25974609 167.59201172 -136.25974609 167.59201172 -137.57421875 165.52734375 C-151.5682685 140.72145282 -153.02874356 107.16147033 -145.64599609 80.20068359 C-137.18523962 51.37783444 -117.66396525 26.11634744 -91.40234375 11.26171875 C-84.31777157 7.5408784 -77.18194175 4.60810754 -69.5625 2.1875 C-69.21920654 2.0778894 -69.21920654 2.0778894 -67.48193359 1.52319336 C-64.12819178 0.49703612 -61.54595227 0 -58 0 C-58 -0.66 -58 -1.32 -58 -2 C-39.24490768 -6.51735557 -18.53647506 -4.75261385 0 0 Z M-46.6875 15.6875 C-47.46150146 15.86901611 -48.23550293 16.05053223 -49.03295898 16.23754883 C-68.7557513 20.9998964 -85.41753521 29.0110696 -101 42 C-101.83144531 42.63292969 -102.66289063 43.26585938 -103.51953125 43.91796875 C-119.36552713 56.57856852 -127.7856104 82.92884274 -130.7109375 102.40234375 C-130.80632812 103.25957031 -130.90171875 104.11679688 -131 105 C-131.09539062 105.84691406 -131.19078125 106.69382812 -131.2890625 107.56640625 C-132.43277687 128.72512204 -122.45476543 157.96126846 -109.375 174.8125 C-93.12771795 191.58530061 -71.33211057 202.2864957 -49 208 C-48.59458984 208.1134375 -48.59458984 208.1134375 -46.54296875 208.6875 C-34.58037387 211.7913084 -23.5669397 209.40764116 -12 206 C-10.74832031 205.63777344 -9.49664062 205.27554688 -8.20703125 204.90234375 C7.09121028 200.14683137 20.41358571 192.85487777 33 183 C33.4640625 182.64615234 33.4640625 182.64615234 35.8125 180.85546875 C51.01898154 168.36111882 57.60678729 146.54421444 62 128 C62.22558594 127.2059375 62.45117188 126.411875 62.68359375 125.59375 C69.13306664 101.75293985 57.67793405 75.05439222 46.171875 54.578125 C43.64258387 50.28665876 40.9390169 47.06117885 37 44 C36.06542969 43.2265625 35.13085938 42.453125 34.16796875 41.65625 C18.93105611 29.27773127 2.09591928 21.73685597 -16.8125 16.625 C-17.76697021 16.36187012 -18.72144043 16.09874023 -19.70483398 15.82763672 C-29.06105007 13.41412413 -37.32176849 13.4416197 -46.6875 15.6875 Z " fill="#153751" transform="translate(158,9)"/>
<path d="M0 0 C1.00450195 0.27070313 2.00900391 0.54140625 3.04394531 0.8203125 C20.54647293 5.66872028 35.57876286 13.00297348 49.8125 24.375 C50.74191406 25.055625 51.67132813 25.73625 52.62890625 26.4375 C69.80568206 40.12028016 77.56803325 66.39980707 80.8125 87.375 C83.06200642 107.32895511 75.32321673 127.39149565 66.6875 145 C66.35065186 145.68811768 66.01380371 146.37623535 65.66674805 147.08520508 C64.05473184 150.27614392 62.59723796 153.07456429 59.8125 155.375 C60.1095433 154.65375946 60.40658661 153.93251892 60.71263123 153.18942261 C65.2720107 141.52255745 65.27120228 130.19999878 65.24609375 117.8671875 C65.25066398 115.8904706 65.25597203 113.91375529 65.26197815 111.93704224 C65.27086775 107.81359358 65.26853198 103.69033906 65.25854492 99.56689453 C65.2470342 94.30374292 65.26732035 89.04126018 65.29646206 83.77819633 C65.31487031 79.70305182 65.31452283 75.62806646 65.30882454 71.55289078 C65.30867203 69.61296777 65.31465743 67.67303349 65.32711601 65.73315048 C65.39898974 52.71509391 65.14578413 42.0207813 55.734375 32.06640625 C49.04103592 26.17572369 41.75193318 25.30240408 33.125 25.375 C32.09632813 25.37371094 31.06765625 25.37242188 30.0078125 25.37109375 C27.87733676 25.37369824 25.74667053 25.40757425 23.6171875 25.47265625 C15.97393374 25.38645414 15.97393374 25.38645414 12.62695312 22.47167969 C10.83878723 20.18301656 9.3017324 17.86635276 7.8125 15.375 C7.1628125 14.49328125 6.513125 13.6115625 5.84375 12.703125 C5.3384375 12.01734375 4.833125 11.3315625 4.3125 10.625 C0.59448319 5.83512249 -3.33270411 2.32659863 -9.1875 0.375 C-25.40048655 -0.79818171 -25.40048655 -0.79818171 -32.1875 4.375 C-36.43149569 8.13401882 -39.53337335 11.47002999 -40.05810547 17.2746582 C-40.09173278 19.07471884 -40.08902486 20.87573402 -40.0546875 22.67578125 C-40.06460724 23.63397263 -40.07452698 24.592164 -40.08474731 25.57939148 C-40.10973744 28.61631124 -40.08757626 31.65062056 -40.0625 34.6875 C-40.06923051 37.74147042 -40.08552648 40.79525044 -40.10452271 43.84916687 C-40.11282616 45.74336488 -40.11206878 47.63762905 -40.10128784 49.53181458 C-40.09863922 50.38667953 -40.0959906 51.24154449 -40.09326172 52.12231445 C-40.08769257 52.87317825 -40.08212341 53.62404205 -40.0763855 54.3976593 C-40.1875 56.375 -40.1875 56.375 -41.1875 59.375 C-40.383125 59.519375 -39.57875 59.66375 -38.75 59.8125 C-36.1875 60.375 -36.1875 60.375 -35.1875 61.375 C-30.70126471 61.66617038 -26.20931099 61.68907181 -21.71484375 61.72509766 C-20.20361901 61.74162263 -18.69247131 61.76886761 -17.18164062 61.80712891 C-15.00089045 61.86207769 -12.82197551 61.88379904 -10.640625 61.8984375 C-9.33254883 61.91825684 -8.02447266 61.93807617 -6.67675781 61.95849609 C-2.31850257 61.22968067 -1.01370462 59.67265282 1.8125 56.375 C5.54314289 53.88790474 8.49402335 53.85874947 12.8125 54.375 C17.96325357 56.15795316 20.41235587 58.4823985 22.8125 63.375 C23.48788521 67.24518491 23.19912073 70.47966778 21.625 74.125 C19.8125 76.375 19.8125 76.375 17.24072266 78.10131836 C14.8125 80.375 14.8125 80.375 14.16552734 83.44360352 C14.1598877 84.61850342 14.15424805 85.79340332 14.1484375 87.00390625 C14.14521484 87.64489258 14.14521484 87.64489258 14.12890625 90.88867188 C14.13937988 91.55310303 14.14985352 92.21753418 14.16064453 92.90209961 C14.1874798 94.93596933 14.16086335 96.96434593 14.12890625 98.99804688 C14.13535156 100.27873047 14.14179688 101.55941406 14.1484375 102.87890625 C14.15125732 103.46579224 14.15125732 103.46579224 14.16552734 106.43579102 C14.8125 109.375 14.8125 109.375 17.24072266 111.14038086 C17.66506592 111.34409302 17.66506592 111.34409302 19.8125 112.375 C22.98205197 116.30961624 23.34598798 119.39577887 22.8125 124.375 C20.99840802 128.48057659 18.58994692 130.97117014 14.8125 133.375 C9.06492142 134.97154961 5.85352903 134.19797626 0.8125 131.375 C0.4825 130.385 0.1525 129.395 -0.1875 128.375 C-5.09929503 128.44391743 -10.01024202 128.53190253 -14.92138672 128.63745117 C-16.59153833 128.6706727 -18.26180146 128.69871334 -19.93212891 128.72143555 C-22.33544363 128.75503334 -24.73773899 128.80734946 -27.140625 128.86328125 C-27.88556213 128.86967117 -28.63049927 128.8760611 -29.39801025 128.88264465 C-33.7112069 129.00453664 -35.93493187 129.57854018 -39.1875 132.375 C-43.98742915 132.91692749 -46.18469176 132.88586458 -50.5 130.6875 C-53.86118105 127.79532095 -55.87719127 125.74110407 -56.46875 121.23046875 C-56.65734523 116.49201368 -56.37445321 113.1114279 -53.1875 109.375 C-49.23570644 106.19161075 -46.17219052 106.08178291 -41.1875 106.375 C-41.6825 105.59125 -42.1775 104.8075 -42.6875 104 C-44.84725317 98.78059651 -45.19251518 93.62685945 -43.5078125 88.17578125 C-42.8112772 86.54058171 -42.00965027 84.95078802 -41.1875 83.375 C-42.198125 83.49875 -43.20875 83.6225 -44.25 83.75 C-49.34249816 83.26500017 -51.89567064 81.19686968 -55.1875 77.375 C-55.5175 76.385 -55.8475 75.395 -56.1875 74.375 C-58.29963425 74.8276002 -59.98698568 75.25021437 -61.83203125 76.3984375 C-65.21899104 77.80264968 -68.52014631 77.66443322 -72.125 77.625 C-72.4765918 77.62886719 -72.4765918 77.62886719 -74.25585938 77.6484375 C-77.23877732 77.63725505 -79.73377328 77.56661711 -82.50219727 76.39746094 C-85.72421447 75.17063959 -88.56469209 74.95820048 -92 74.75 C-93.16144531 74.67523438 -94.32289062 74.60046875 -95.51953125 74.5234375 C-95.95974609 74.49894531 -95.95974609 74.49894531 -98.1875 74.375 C-98.17257148 83.32947152 -98.13073942 92.28330989 -98.05540943 101.23747826 C-98.02125008 105.39618386 -97.99604682 109.55452643 -97.99194336 113.71337891 C-97.98763645 117.73377272 -97.9589783 121.75334914 -97.91406822 125.77348709 C-97.90116903 127.30027107 -97.89675843 128.82715326 -97.90134621 130.35398483 C-97.92032849 138.59641187 -97.61169597 145.3728988 -93.15873718 152.56484985 C-92.99848305 152.86352463 -92.99848305 152.86352463 -92.1875 154.375 C-92.5175 155.035 -92.8475 155.695 -93.1875 156.375 C-97.36139758 150.9717534 -100.13154518 145.53997152 -102.75 139.25 C-103.14203613 138.31784668 -103.53407227 137.38569336 -103.93798828 136.42529297 C-115.19327424 109.27797631 -116.89877491 85.57413919 -105.890625 58.3359375 C-94.90569256 32.30190731 -77.28227624 15.91026247 -51.19091797 5.14501953 C-34.28859773 -1.35143648 -17.72556015 -4.88485548 0 0 Z " fill="#163751" transform="translate(141.1875,25.625)"/>
<path d="M0 0 C2.64454422 1.41042358 3.40480718 3.42716257 4.875 6 C8.15797215 9.28297215 11.34573008 9.56449328 15.875 10 C15 14.75 15 14.75 13.875 17 C13.43575441 22.67954768 13.63777657 27.68659435 15.875 33 C15.27171875 33.09796875 14.6684375 33.1959375 14.046875 33.296875 C9.18283959 34.20692033 5.98412858 34.85449523 2.875 39 C1.14910215 42.45179569 1.51456035 46.21866039 1.875 50 C3.60371572 54.18531174 5.70539478 56.23950002 9.875 58 C12.73630384 58.41608602 14.92834717 58.2806336 17.875 58 C18.45314453 57.5062085 19.03128906 57.01241699 19.62695312 56.50366211 C22.86622494 54.33699452 26.01284683 54.55130134 29.78125 54.56640625 C30.54296509 54.5611644 31.30468018 54.55592255 32.08947754 54.55052185 C33.69652083 54.54411154 35.30361109 54.54542586 36.91064453 54.55395508 C39.36706102 54.56247247 41.82115647 54.53368236 44.27734375 54.50195312 C45.84114514 54.5003411 47.40495063 54.50091866 48.96875 54.50390625 C49.33494446 54.49828926 49.33494446 54.49828926 51.18811035 54.46986389 C54.63844594 54.51694287 56.48026253 54.67382351 59.18164062 56.90600586 C59.74044922 57.59702393 60.29925781 58.28804199 60.875 59 C61.37 59.33 61.37 59.33 63.875 61 C64.28959656 62.85035706 64.28959656 62.85035706 64.3425293 65.12329102 C64.36812424 65.97500381 64.39371918 66.82671661 64.42008972 67.70423889 C64.4297023 68.62812912 64.43931488 69.55201935 64.44921875 70.50390625 C64.4639473 71.45635727 64.47867584 72.40880829 64.49385071 73.39012146 C64.51784262 75.4117732 64.53323531 77.43354221 64.54077148 79.45532227 C64.56225613 82.5276273 64.64231214 85.59482136 64.72460938 88.66601562 C64.94979362 105.13742984 64.94979362 105.13742984 60.0703125 110.74609375 C57.97314453 112.57592773 57.97314453 112.57592773 55.875 114 C55.53774902 114.23106445 55.53774902 114.23106445 53.83105469 115.40039062 C48.10707874 118.95930665 41.01720198 119.63469224 34.453125 118.62890625 C23.6295524 115.62443179 17.90155244 106.69693909 11.87890625 97.9140625 C9.875 95 9.875 95 8.875 94 C7.13955642 93.87834004 5.39957878 93.82028474 3.66015625 93.7890625 C2.58056641 93.76070313 1.50097656 93.73234375 0.38867188 93.703125 C-1.87680522 93.65184086 -4.1424483 93.60734761 -6.40820312 93.5703125 C-17.76386377 93.24835638 -27.00306903 91.34683628 -35.125 83 C-41.49653625 73.88394043 -41.9401402 65.17027479 -41.7109375 54.515625 C-41.69971796 52.96337542 -41.69119085 51.41110429 -41.68521118 49.85882568 C-41.66252869 45.81415993 -41.60379123 41.77083 -41.5369873 37.72668457 C-41.47511362 33.58359844 -41.44810098 29.44029203 -41.41796875 25.296875 C-41.35402108 17.1973102 -41.2519008 9.09882222 -41.125 1 C-39.0627952 0.945652 -37.00017184 0.90705039 -34.9375 0.875 C-33.78894531 0.85179688 -32.64039063 0.82859375 -31.45703125 0.8046875 C-28.16866941 0.99744025 -26.106485 1.69654462 -23.125 3 C-20.41094587 3.21412107 -17.83482265 3.32499918 -15.125 3.3125 C-14.42632812 3.32861328 -13.72765625 3.34472656 -13.0078125 3.36132812 C-7.90395211 3.36614309 -4.48326233 0 0 0 Z " fill="#133550" transform="translate(84.125,99)"/>
<path d="M0 0 C5.7184418 3.52285785 11.15510586 9.36703342 13.90625 15.46484375 C15.50829637 18.86919228 16.49322823 20.46289815 19.625 22.625 C25.60233839 23.80880458 31.67510375 23.64357355 37.7421875 23.5625 C46.70482892 23.47692048 54.70188503 25.12862438 61.47265625 31.3125 C68.8771086 39.10997 71.09676335 47.10831822 70.9765625 57.74609375 C70.94304687 58.90238281 70.90953125 60.05867188 70.875 61.25 C70.85695313 62.44496094 70.83890625 63.63992187 70.8203125 64.87109375 C70.7736112 67.78992527 70.7081334 70.70701761 70.625 73.625 C68.975 73.955 68.975 73.955 60.625 75.625 C60.625 76.945 60.625 78.265 60.625 79.625 C58.975 79.295 57.325 78.965 55.625 78.625 C55.79 77.965 55.79 77.965 56.625 74.625 C55.93277344 74.64820312 55.24054688 74.67140625 54.52734375 74.6953125 C46.14452666 74.84993627 37.84874162 74.32863957 29.625 72.625 C27.21061014 70.21061014 27.26468526 69.12686888 26.8125 65.8125 C25.9402435 61.02201191 24.60861332 58.63700031 20.625 55.625 C15.80049824 54.01683275 11.4356662 53.82025947 6.8125 55.875 C4.625 57.625 4.625 57.625 3.4309082 59.70336914 C1.625 61.625 1.625 61.625 -1.55786133 62.12670898 C-2.8445874 62.12485596 -4.13131348 62.12300293 -5.45703125 62.12109375 C-6.1488298 62.12254898 -6.84062836 62.12400421 -7.5533905 62.12550354 C-9.01683766 62.12384471 -10.48030228 62.11228484 -11.94360352 62.09155273 C-14.16954888 62.06273242 -16.39309103 62.07091463 -18.61914062 62.08398438 C-30.51730774 62.03186951 -30.51730774 62.03186951 -36.375 58.625 C-36.43511113 52.09560153 -36.43236072 45.56833059 -36.38720703 39.03881836 C-36.37912772 36.82072549 -36.38510465 34.60253287 -36.40576172 32.38452148 C-36.43307845 29.18343242 -36.40878535 25.98611501 -36.375 22.78515625 C-36.3944165 21.80354019 -36.41383301 20.82192413 -36.43383789 19.81056213 C-36.29002499 12.84604212 -34.29852903 9.40186149 -29.43774414 4.4516449 C-21.54347969 -2.53905142 -9.89880087 -4.17419314 0 0 Z " fill="#143650" transform="translate(136.375,26.375)"/>
<path d="M0 0 C5.15075357 1.78295316 7.59985587 4.1073985 10 9 C10.67538521 12.87018491 10.38662073 16.10466778 8.8125 19.75 C7 22 7 22 4.42822266 23.72631836 C2 26 2 26 1.35302734 29.06860352 C1.3473877 30.24350342 1.34174805 31.41840332 1.3359375 32.62890625 C1.32949219 33.91087891 1.32304687 35.19285156 1.31640625 36.51367188 C1.32687988 37.17810303 1.33735352 37.84253418 1.34814453 38.52709961 C1.3749798 40.56096933 1.34836335 42.58934593 1.31640625 44.62304688 C1.32285156 45.90373047 1.32929688 47.18441406 1.3359375 48.50390625 C1.34157715 49.67767822 1.3472168 50.8514502 1.35302734 52.06079102 C2 55 2 55 4.42822266 56.76538086 C5.27690918 57.17280518 6.1255957 57.58022949 7 58 C10.16955197 61.93461624 10.53348798 65.02077887 10 70 C8.18590802 74.10557659 5.77744692 76.59617014 2 79 C-3.74757858 80.59654961 -6.95897097 79.82297626 -12 77 C-12.33 76.01 -12.66 75.02 -13 74 C-17.91179503 74.06891743 -22.82274202 74.15690253 -27.73388672 74.26245117 C-29.40403833 74.2956727 -31.07430146 74.32371334 -32.74462891 74.34643555 C-35.14794363 74.38003334 -37.55023899 74.43234946 -39.953125 74.48828125 C-40.32559357 74.49147621 -40.32559357 74.49147621 -42.21051025 74.50764465 C-46.5237069 74.62953664 -48.74743187 75.20354018 -52 78 C-56.79992915 78.54192749 -58.99719176 78.51086458 -63.3125 76.3125 C-66.67368105 73.42032095 -68.68969127 71.36610407 -69.28125 66.85546875 C-69.46984523 62.11701368 -69.18695321 58.7364279 -66 55 C-62.04820644 51.81661075 -58.98469052 51.70678291 -54 52 C-54.495 51.21625 -54.99 50.4325 -55.5 49.625 C-57.65975317 44.40559651 -58.00501518 39.25185945 -56.3203125 33.80078125 C-55.6237772 32.16558171 -54.82215027 30.57578802 -54 29 C-54.5053125 29.061875 -54.5053125 29.061875 -57.0625 29.375 C-62.15499816 28.89000017 -64.70817064 26.82186968 -68 23 C-69.2517847 19.24464589 -69.77373976 15.88289586 -69 12 C-66.93384829 8.6750851 -64.53109208 5.76554604 -61 4 C-57.12856514 3.70219732 -54.6882742 3.63085074 -51.22875977 5.48632812 C-45.80178255 8.03054429 -40.03576872 7.5193343 -34.15014648 7.50097656 C-31.93928093 7.50000079 -29.73185278 7.54174486 -27.52148438 7.5859375 C-26.10677801 7.59114308 -24.69205969 7.59383272 -23.27734375 7.59375 C-22.00109131 7.60083984 -20.72483887 7.60792969 -19.40991211 7.61523438 C-15.13123937 6.84325361 -13.79345007 5.2378973 -11 2 C-7.26935711 -0.48709526 -4.31847665 -0.51625053 0 0 Z " fill="#8866B3" transform="translate(154,80)"/>
<path d="M0 0 C1.00450195 0.27070313 2.00900391 0.54140625 3.04394531 0.8203125 C20.54647293 5.66872028 35.57876286 13.00297348 49.8125 24.375 C50.74191406 25.055625 51.67132813 25.73625 52.62890625 26.4375 C69.80568206 40.12028016 77.56803325 66.39980707 80.8125 87.375 C83.06200642 107.32895511 75.32321673 127.39149565 66.6875 145 C66.35065186 145.68811768 66.01380371 146.37623535 65.66674805 147.08520508 C64.05473184 150.27614392 62.59723796 153.07456429 59.8125 155.375 C60.1095433 154.65375946 60.40658661 153.93251892 60.71263123 153.18942261 C65.2720107 141.52255745 65.27120228 130.19999878 65.24609375 117.8671875 C65.25066398 115.8904706 65.25597203 113.91375529 65.26197815 111.93704224 C65.27086775 107.81359358 65.26853198 103.69033906 65.25854492 99.56689453 C65.2470342 94.30374292 65.26732035 89.04126018 65.29646206 83.77819633 C65.31487031 79.70305182 65.31452283 75.62806646 65.30882454 71.55289078 C65.30867203 69.61296777 65.31465743 67.67303349 65.32711601 65.73315048 C65.39898974 52.71509391 65.14578413 42.0207813 55.734375 32.06640625 C49.04103592 26.17572369 41.75193318 25.30240408 33.125 25.375 C32.09632813 25.37371094 31.06765625 25.37242188 30.0078125 25.37109375 C27.87733676 25.37369824 25.74667053 25.40757425 23.6171875 25.47265625 C15.97393374 25.38645414 15.97393374 25.38645414 12.62695312 22.47167969 C10.83878723 20.18301656 9.3017324 17.86635276 7.8125 15.375 C7.1628125 14.49328125 6.513125 13.6115625 5.84375 12.703125 C5.3384375 12.01734375 4.833125 11.3315625 4.3125 10.625 C0.59448319 5.83512249 -3.33270411 2.32659863 -9.1875 0.375 C-25.87415844 -0.8324569 -25.87415844 -0.8324569 -32.1875 4.375 C-37.23432571 9.19988117 -41.24283122 14.63861118 -44.9609375 20.52734375 C-46.1875 22.375 -46.1875 22.375 -48.1875 24.375 C-50.64257812 24.64624023 -50.64257812 24.64624023 -53.71875 24.68359375 C-54.84023437 24.70873047 -55.96171875 24.73386719 -57.1171875 24.75976562 C-59.46609749 24.79445959 -61.81505977 24.82580267 -64.1640625 24.85351562 C-73.08016045 25.06169331 -82.11662515 25.49062283 -88.8125 32.0625 C-89.46476562 32.68511719 -90.11703125 33.30773438 -90.7890625 33.94921875 C-91.25054687 34.41972656 -91.71203125 34.89023437 -92.1875 35.375 C-92.1875 32.375 -92.1875 32.375 -90.45703125 30.4296875 C-66.60210217 9.26744516 -32.51852842 -8.96153975 0 0 Z " fill="#F6C75C" transform="translate(141.1875,25.625)"/>
<path d="M0 0 C5.15075357 1.78295316 7.59985587 4.1073985 10 9 C10.67538521 12.87018491 10.38662073 16.10466778 8.8125 19.75 C7 22 7 22 4.42822266 23.72631836 C2 26 2 26 1.35302734 29.06860352 C1.3473877 30.24350342 1.34174805 31.41840332 1.3359375 32.62890625 C1.32949219 33.91087891 1.32304687 35.19285156 1.31640625 36.51367188 C1.32687988 37.17810303 1.33735352 37.84253418 1.34814453 38.52709961 C1.3749798 40.56096933 1.34836335 42.58934593 1.31640625 44.62304688 C1.32285156 45.90373047 1.32929688 47.18441406 1.3359375 48.50390625 C1.34157715 49.67767822 1.3472168 50.8514502 1.35302734 52.06079102 C2 55 2 55 4.42822266 56.76538086 C5.27690918 57.17280518 6.1255957 57.58022949 7 58 C10.16955197 61.93461624 10.53348798 65.02077887 10 70 C8.18590802 74.10557659 5.77744692 76.59617014 2 79 C-3.60141647 80.55594902 -6.9511379 79.81571155 -12 77 C-15.63932648 73.23936264 -16.04471276 69.80157746 -16.0625 64.75 C-16.041875 63.5125 -16.02125 62.275 -16 61 C-14.68 60.34 -13.36 59.68 -12 59 C-12 58.34 -12 57.68 -12 57 C-8.63316085 54.56839395 -7.26649636 54 -3 54 C-3 45.09 -3 36.18 -3 27 C-4.98 26.67 -6.96 26.34 -9 26 C-9.825 25.55785156 -10.65 25.11570312 -11.5 24.66015625 C-12.325 24.44230469 -13.15 24.22445312 -14 24 C-16.27622507 25.4014524 -18.02852361 26.68869036 -20 28.4375 C-25.23607222 33.04231986 -25.23607222 33.04231986 -28.75 32.84765625 C-31 32 -31 32 -33 31 C-31.31702782 26.06253856 -26.86613771 24.108318 -22.61132812 21.61914062 C-20.87109375 20.51171875 -20.87109375 20.51171875 -18 18 C-17.67 15.69 -17.34 13.38 -17 11 C-26.24 11 -35.48 11 -45 11 C-44.67 11.66 -44.34 12.32 -44 13 C-43.59289407 17.23390162 -43.74424035 19.51588352 -45.75 23.3125 C-48.4160733 26.49697644 -50.26887228 27.72861859 -54.3671875 28.37109375 C-58.791729 28.48825451 -62.01062707 28.54275862 -65.5625 25.6875 C-68.85458634 22.05776378 -69.45285147 19.01838201 -69.42578125 14.13671875 C-68.64365115 10.21171725 -65.91214543 7.60282428 -63 5 C-59.92805092 3.46402546 -57.39755707 3.7734962 -54 4 C-53.08549072 4.49048828 -52.17098145 4.98097656 -51.22875977 5.48632812 C-45.80178255 8.03054429 -40.03576872 7.5193343 -34.15014648 7.50097656 C-31.93928093 7.50000079 -29.73185278 7.54174486 -27.52148438 7.5859375 C-26.10677801 7.59114308 -24.69205969 7.59383272 -23.27734375 7.59375 C-22.00109131 7.60083984 -20.72483887 7.60792969 -19.40991211 7.61523438 C-15.13123937 6.84325361 -13.79345007 5.2378973 -11 2 C-7.26935711 -0.48709526 -4.31847665 -0.51625053 0 0 Z " fill="#E2D25C" transform="translate(154,80)"/>
<path d="M0 0 C0 3 0 3 -1.8359375 5.015625 C-21.02805873 21.90469168 -41.30373118 31.34768495 -66 37 C-66.70640625 37.19207031 -67.4128125 37.38414062 -68.140625 37.58203125 C-87.85928207 42.01458652 -112.95449822 30.41145897 -129.28271484 20.13574219 C-136.97179109 15.05050154 -144.10119475 9.0966186 -151 3 C-150.67 2.34 -150.34 1.68 -150 1 C-149.68546875 1.24105469 -149.68546875 1.24105469 -148.09375 2.4609375 C-147.66578125 2.77675781 -147.66578125 2.77675781 -145.5 4.375 C-144.6646875 5.00148437 -143.829375 5.62796875 -142.96875 6.2734375 C-134.63924185 11.11770408 -125.35947571 10.29561116 -116.0234375 10.12695312 C-108.07654781 10.2272444 -108.07654781 10.2272444 -105.0300293 12.4140625 C-103.47559447 14.19585078 -102.22874932 15.98234966 -101 18 C-100.31035156 18.96164063 -99.62070313 19.92328125 -98.91015625 20.9140625 C-98.30042969 21.80867188 -97.69070312 22.70328125 -97.0625 23.625 C-92.22959454 30.3230762 -87.43211571 34.59464738 -79 36 C-70.79920466 36.09836036 -63.99824259 34.78581224 -57.94140625 29.05078125 C-53.86812666 24.63870336 -50.4293143 19.92017097 -47.2265625 14.84765625 C-46 13 -46 13 -44 11 C-41.77612305 10.74462891 -41.77612305 10.74462891 -39.01171875 10.7265625 C-38.00101318 10.70891846 -36.99030762 10.69127441 -35.94897461 10.6730957 C-35.4108313 10.66515991 -35.4108313 10.66515991 -32.6875 10.625 C-20.02786198 10.25345596 -9.2846478 9.50056984 0 0 Z " fill="#12B881" transform="translate(200,181)"/>
<path d="M0 0 C0.33 0.66 0.66 1.32 1 2 C2.65204456 2.70211894 4.31923769 3.36971413 6 4 C6.33 4.33 6.66 4.66 7 5 C11.65863169 5.26876721 14.7333258 4.72973278 19 3 C23.44890447 3.74299308 26.86616178 6.07202422 30.625 8.4375 C31.305625 8.82615234 31.98625 9.21480469 32.6875 9.61523438 C35.84048268 11.61856231 37.64207135 12.98046322 38.90527344 16.57861328 C39.40261376 19.05701134 39.77482804 21.48331783 40 24 C38.99098633 24.01458252 37.98197266 24.02916504 36.94238281 24.04418945 C33.19235109 24.10224114 29.44291554 24.17947292 25.69335938 24.26245117 C24.07171314 24.29566835 22.44995219 24.32371035 20.828125 24.34643555 C18.49429523 24.38004155 16.16151365 24.4323576 13.828125 24.48828125 C13.10506165 24.49467117 12.38199829 24.5010611 11.63702393 24.50764465 C7.37533791 24.63162476 5.21859692 25.25433062 2 28 C-2.79992915 28.54192749 -4.99719176 28.51086458 -9.3125 26.3125 C-12.67368105 23.42032095 -14.68969127 21.36610407 -15.28125 16.85546875 C-15.46984523 12.11701368 -15.18695321 8.7364279 -12 5 C-8.04820644 1.81661075 -4.98469052 1.70678291 0 2 C0 1.34 0 0.68 0 0 Z " fill="#377AA4" transform="translate(100,130)"/>
<path d="M0 0 C0.33 0.66 0.66 1.32 1 2 C0.14320641 4.00219135 -0.92426178 5.83749994 -1.9921875 7.734375 C-4.38369761 13.11063804 -4.16215886 18.9765815 -4.19287109 24.75244141 C-4.20104858 25.6118634 -4.20922607 26.4712854 -4.21765137 27.35675049 C-4.24237113 30.18834765 -4.25898838 33.01989507 -4.2734375 35.8515625 C-4.27876118 36.82401287 -4.28408485 37.79646324 -4.28956985 38.79838181 C-4.31624535 43.94744832 -4.33563663 49.09649108 -4.35009766 54.24560547 C-4.36342017 58.48801308 -4.39125019 62.72993784 -4.43212891 66.97216797 C-4.48166598 72.11442264 -4.50624421 77.25624056 -4.51332474 82.3987236 C-4.52000121 84.34819693 -4.53512817 86.29766189 -4.55921555 88.24699783 C-4.67614439 98.28354183 -4.75549867 106.71310375 -0.0753479 115.80795288 C1 118 1 118 1 121 C-3.17389758 115.5967534 -5.94404518 110.16497152 -8.5625 103.875 C-8.95453613 102.94284668 -9.34657227 102.01069336 -9.75048828 101.05029297 C-21.00999158 73.89280424 -22.68551236 50.23338567 -11.71875 22.98046875 C-8.40577618 15.12000657 -4.73526561 7.10289842 0 0 Z " fill="#96BB73" transform="translate(47,61)"/>
<path d="M0 0 C4.39704421 0.70204908 6.64871128 2.03171571 10 5 C10.99 4.01 11.98 3.02 13 2 C18.63840677 26.21494336 11.55068634 48.85693196 0.875 70.625 C0.53815186 71.31311768 0.20130371 72.00123535 -0.14575195 72.71020508 C-1.75776816 75.90114392 -3.21526204 78.69956429 -6 81 C-5.70285599 80.28563782 -5.40571198 79.57127563 -5.0995636 78.83526611 C-1.26383526 68.94469625 -0.53616546 59.34926463 -0.48828125 48.828125 C-0.4713897 47.41036472 -0.45323365 45.992619 -0.43388367 44.57489014 C-0.3868621 40.885992 -0.35674626 37.19715289 -0.33044434 33.50805664 C-0.30039389 29.72660664 -0.2539494 25.94535936 -0.20898438 22.1640625 C-0.12349752 14.77614335 -0.0559131 7.38820854 0 0 Z " fill="#8AC976" transform="translate(207,100)"/>
<path d="M0 0 C0.78761719 0.4640625 1.57523438 0.928125 2.38671875 1.40625 C4.36671875 2.06625 6.34671875 2.72625 8.38671875 3.40625 C8.38671875 12.31625 8.38671875 21.22625 8.38671875 30.40625 C7.23171875 30.90125 7.23171875 30.90125 1.38671875 33.40625 C0.70738281 33.71175781 0.02804688 34.01726562 -0.671875 34.33203125 C-3.9972178 34.45915703 -6.03244545 32.46406567 -8.67578125 30.59375 C-9.71863281 29.86542969 -10.76148438 29.13710937 -11.8359375 28.38671875 C-12.75246094 27.73316406 -13.66898438 27.07960937 -14.61328125 26.40625 C-15.60328125 25.74625 -16.59328125 25.08625 -17.61328125 24.40625 C-19.01789345 19.4901073 -19.01685492 15.31622433 -17.61328125 10.40625 C-15.52805415 7.78467669 -13.13255962 5.86143063 -10.42578125 3.90625 C-9.75369629 3.41970947 -9.08161133 2.93316895 -8.38916016 2.43188477 C-3.45171223 -0.78424553 -3.45171223 -0.78424553 0 0 Z " fill="#133550" transform="translate(142.61328125,103.59375)"/>
<path d="M0 0 C-3.79397854 2.52931903 -5.68105156 2.08292039 -10.1875 1.875 C-17.84315362 1.72996855 -22.46255933 2.61812556 -28.04296875 7.953125 C-32.13878103 12.34863086 -35.56957853 17.0780755 -38.7734375 22.15234375 C-40 24 -40 24 -42 26 C-44.45507812 26.27124023 -44.45507812 26.27124023 -47.53125 26.30859375 C-48.65273437 26.33373047 -49.77421875 26.35886719 -50.9296875 26.38476562 C-53.27859749 26.41945959 -55.62755977 26.45080267 -57.9765625 26.47851562 C-66.89266045 26.68669331 -75.92912515 27.11562283 -82.625 33.6875 C-83.27726562 34.31011719 -83.92953125 34.93273438 -84.6015625 35.57421875 C-85.06304687 36.04472656 -85.52453125 36.51523437 -86 37 C-86 34 -86 34 -84.26953125 32.0546875 C-63.75397846 13.85488073 -28.8535943 -7.69429181 0 0 Z " fill="#E0A860" transform="translate(135,24)"/>
<path d="M0 0 C2.64 0 5.28 0 8 0 C8.00410889 0.86278564 8.00821777 1.72557129 8.01245117 2.61450195 C8.03943555 5.81873532 8.08852168 9.021652 8.15258789 12.2253418 C8.17577078 13.61128963 8.19016441 14.9974137 8.19555664 16.38354492 C8.20484197 18.3770332 8.24845978 20.37026828 8.29296875 22.36328125 C8.3086792 23.56251221 8.32438965 24.76174316 8.34057617 25.99731445 C9 29 9 29 11.4309082 30.77416992 C12.2787085 31.17869385 13.12650879 31.58321777 14 32 C17.16955197 35.93461624 17.53348798 39.02077887 17 44 C15.18590802 48.10557659 12.77744692 50.59617014 9 53 C3.39858353 54.55594902 0.0488621 53.81571155 -5 51 C-8.63932648 47.23936264 -9.04471276 43.80157746 -9.0625 38.75 C-9.0521875 38.13125 -9.0521875 38.13125 -9 35 C-7.68 34.34 -6.36 33.68 -5 33 C-5 32.34 -5 31.68 -5 31 C-1.63316085 28.56839395 -0.26649636 28 4 28 C4 19.09 4 10.18 4 1 C2.68 0.67 1.36 0.34 0 0 Z " fill="#61C7D6" transform="translate(147,106)"/>
<path d="M0 0 C0.350625 0.24105469 0.350625 0.24105469 2.125 1.4609375 C2.599375 1.77675781 2.599375 1.77675781 5 3.375 C5.928125 4.00148437 6.85625 4.62796875 7.8125 5.2734375 C16.41820169 9.93485925 25.44148816 9.2992068 34.9765625 9.12695312 C42.92467441 9.22725983 42.92467441 9.22725983 45.96777344 11.4140625 C47.52053022 13.19588258 48.76838014 14.98535834 50 17 C50.350625 17.48082031 50.350625 17.48082031 52.125 19.9140625 C52.74375 20.80867188 53.3625 21.70328125 54 22.625 C56.99974443 26.8246422 59.88915802 29.91686851 64 33 C64 33.33 64 33.66 64 34 C57.91587458 34.27436868 53.17037568 33.49771528 47.4375 31.5 C46.65882568 31.23300293 45.88015137 30.96600586 45.07788086 30.69091797 C32.91422357 26.3544497 22.11840579 20.02494252 12 12 C11.46117187 11.57332031 10.92234375 11.14664063 10.3671875 10.70703125 C3.14126241 4.94938774 3.14126241 4.94938774 0 2 C0 1.34 0 0.68 0 0 Z " fill="#67BB7E" transform="translate(49,182)"/>
<path d="M0 0 C5.13656401 1.81290495 7.56523417 4.13046834 10 9 C10.62258999 13.35812995 10.31301399 15.40750924 8.25 19.3125 C5.5839267 22.49697644 3.73112772 23.72861859 -0.3671875 24.37109375 C-4.791729 24.48825451 -8.01062707 24.54275862 -11.5625 21.6875 C-14.85458634 18.05776378 -15.45285147 15.01838201 -15.42578125 10.13671875 C-14.64365115 6.21171725 -11.91214543 3.60282428 -9 1 C-5.92805092 -0.53597454 -3.39755707 -0.2265038 0 0 Z " fill="#83CBDC" transform="translate(100,84)"/>
<path d="M0 0 C-0.33 11.22 -0.66 22.44 -1 34 C5.93 34.33 12.86 34.66 20 35 C20 35.33 20 35.66 20 36 C19.30438965 35.98839844 18.6087793 35.97679687 17.89208984 35.96484375 C14.7185649 35.93523899 11.54846689 35.96705744 8.375 36 C7.28058594 35.98066406 6.18617188 35.96132812 5.05859375 35.94140625 C-2.95109577 36.08703697 -2.95109577 36.08703697 -6.04199219 38.77734375 C-7.53804867 40.78906225 -8.77411286 42.81717319 -10 45 C-10.66 45.66 -11.32 46.32 -12 47 C-12.33 32.48 -12.66 17.96 -13 3 C-10.69 3 -8.38 3 -6 3 C-0.25 0 -0.25 0 0 0 Z " fill="#226D6F" transform="translate(160,156)"/>
<path d="M0 0 C0.33 0 0.66 0 1 0 C1.02467081 6.08723655 1.04284604 12.17444417 1.05493164 18.26171875 C1.05996852 20.33366401 1.06679825 22.4056057 1.07543945 24.47753906 C1.08753321 27.45118082 1.09323467 30.42477569 1.09765625 33.3984375 C1.10281754 34.32868744 1.10797882 35.25893738 1.11329651 36.21737671 C1.11337204 37.07811798 1.11344757 37.93885925 1.11352539 38.82568359 C1.115746 39.58513275 1.11796661 40.34458191 1.12025452 41.12704468 C1 43 1 43 0 45 C-1.485 45.165 -1.485 45.165 -9 46 C-9 34.78 -9 23.56 -9 12 C-16.92 12 -24.84 12 -33 12 C-33 11.67 -33 11.34 -33 11 C-32.61666504 10.99794556 -32.61666504 10.99794556 -30.67675781 10.98754883 C-27.20038955 10.95463865 -23.72577979 10.88399547 -20.25 10.8125 C-19.0434375 10.80669922 -17.836875 10.80089844 -16.59375 10.79492188 C-15.43359375 10.76591797 -14.2734375 10.73691406 -13.078125 10.70703125 C-12.00981445 10.6913208 -10.94150391 10.67561035 -9.84082031 10.65942383 C-6.06473691 9.78290258 -5.08687641 8.18257511 -3 5 C-2.443125 4.071875 -1.88625 3.14375 -1.3125 2.1875 C-0.879375 1.465625 -0.44625 0.74375 0 0 Z " fill="#6D6757" transform="translate(100,39)"/>
<path d="M0 0 C9.24 0 18.48 0 28 0 C28 7 28 7 26.70239258 8.8203125 C26.10579834 9.25085938 25.5092041 9.68140625 24.89453125 10.125 C24.24033203 10.60324219 23.58613281 11.08148438 22.91210938 11.57421875 C22.21923828 12.04472656 21.52636719 12.51523438 20.8125 13 C20.47573242 13.25072266 20.47573242 13.25072266 18.77148438 14.51953125 C13.79405006 18.04501156 13.79405006 18.04501156 10.3125 17.84765625 C9.549375 17.56792969 8.78625 17.28820312 8 17 C6.39814009 16.79371915 4.793844 16.60532699 3.1875 16.4375 C2.39730469 16.35371094 1.60710937 16.26992187 0.79296875 16.18359375 C0.20128906 16.12300781 -0.39039062 16.06242187 -1 16 C-1.625 14.1875 -1.625 14.1875 -2 12 C-1.34 11.01 -0.68 10.02 0 9 C0 6.03 0 3.06 0 0 Z " fill="#153651" transform="translate(109,91)"/>
<path d="M0 0 C2.69924042 1.35681819 5.207908 2.99594671 7.75 4.625 C8.44738281 5.03878906 9.14476562 5.45257813 9.86328125 5.87890625 C10.52199219 6.30300781 11.18070313 6.72710937 11.859375 7.1640625 C12.46233398 7.53998535 13.06529297 7.9159082 13.68652344 8.30322266 C15 10 15 10 15 17 C5.76 17 -3.48 17 -13 17 C-13 13.7 -13 10.4 -13 7 C-14 3.875 -14 3.875 -15 2 C-14.37351562 1.86722656 -13.74703125 1.73445312 -13.1015625 1.59765625 C-12.28429687 1.42105469 -11.46703125 1.24445313 -10.625 1.0625 C-9.81289062 0.88847656 -9.00078125 0.71445313 -8.1640625 0.53515625 C-2.57983852 -0.84578001 -2.57983852 -0.84578001 0 0 Z " fill="#143853" transform="translate(123,134)"/>
<path d="M0 0 C0.33 0.66 0.66 1.32 1 2 C0.14320641 4.00219135 -0.92426178 5.83749994 -1.9921875 7.734375 C-4.00576957 12.26103238 -4.1397604 17.15907406 -4.31640625 22.0546875 C-4.35830078 23.16328125 -4.40019531 24.271875 -4.44335938 25.4140625 C-4.48267578 26.55617188 -4.52199219 27.69828125 -4.5625 28.875 C-4.60568359 30.0403125 -4.64886719 31.205625 -4.69335938 32.40625 C-4.79901629 35.27072625 -4.90111799 38.13528321 -5 41 C-5.39465454 41.06940796 -5.39465454 41.06940796 -7.3918457 41.4206543 C-10.24993938 42.05551869 -11.21153011 42.71998496 -13.1875 44.8125 C-13.67605469 45.31394531 -14.16460937 45.81539062 -14.66796875 46.33203125 C-16.09942681 48.12450219 -17.00411482 49.94059962 -18 52 C-18.42024553 44.69336993 -17.44479306 38.8103887 -15 31.9375 C-14.6896582 31.03717041 -14.37931641 30.13684082 -14.05957031 29.20922852 C-6.515042 7.90250465 -6.515042 7.90250465 0 0 Z " fill="#B4B56C" transform="translate(47,61)"/>
<path d="M0 0 C5.75182431 4.07456185 8.4296831 8.69853793 11.5625 14.9375 C12.03993652 15.87174805 12.51737305 16.80599609 13.00927734 17.76855469 C17.9619813 27.63321358 22.81285537 37.77132208 23 49 C22.34 49.66 21.68 50.32 21 51 C20.76474609 50.82533203 20.76474609 50.82533203 19.57421875 49.94140625 C18.95160156 49.48636719 18.32898438 49.03132813 17.6875 48.5625 C17.07261719 48.11003906 16.45773438 47.65757813 15.82421875 47.19140625 C14 46 14 46 11 45 C10.99532715 44.63237549 10.99532715 44.63237549 10.97167969 42.77197266 C10.91746722 39.38900851 10.83392029 36.0073525 10.75 32.625 C10.73582031 31.46871094 10.72164062 30.31242187 10.70703125 29.12109375 C10.41649185 18.83599908 8.45396443 10.87338911 1.171875 3.375 C0 2 0 2 0 0 Z " fill="#B8CD69" transform="translate(196,55)"/>
<path d="M0 0 C2.48367871 4.96735742 2.43252904 12.65687035 1 18 C-2.05756101 21.85472957 -5.39414994 24.26581354 -10 26 C-12.74345886 25.74561366 -14.55024808 25.22487596 -17 24 C-15.31702782 19.06253856 -10.86613771 17.108318 -6.61132812 14.61914062 C-4.87109375 13.51171875 -4.87109375 13.51171875 -2 11 C-1.67 8.69 -1.34 6.38 -1 4 C-10.57 4 -20.14 4 -30 4 C-30.33 3.01 -30.66 2.02 -31 1 C-25.885 0.835 -25.885 0.835 0 0 Z " fill="#B1A770" transform="translate(138,87)"/>
<path d="M0 0 C1.42208512 4.50005684 0.06190812 7.87268947 -1.4375 12.1875 C-1.5718042 12.58074463 -1.5718042 12.58074463 -2.25146484 14.57080078 C-4.2679826 20.30045321 -6.57141482 25.86482221 -9.125 31.375 C-9.28705933 31.72832397 -9.28705933 31.72832397 -10.10717773 33.51635742 C-11.93437662 37.3240639 -13.79998411 40.2266529 -17 43 C-16.70222656 42.27683594 -16.40445313 41.55367187 -16.09765625 40.80859375 C-11.40574889 28.8033219 -11.3286568 16.73828422 -11 4 C-8.03 4 -5.06 4 -2 4 C-1.34 2.68 -0.68 1.36 0 0 Z " fill="#65C680" transform="translate(218,138)"/>
<path d="M0 0 C0.66 0 1.32 0 2 0 C2 11.88 2 23.76 2 36 C1.175 36.165 1.175 36.165 -3 37 C-3 25.78 -3 14.56 -3 3 C-10.92 3 -18.84 3 -27 3 C-27 2.67 -27 2.34 -27 2 C-26.21761963 1.97494385 -25.43523926 1.9498877 -24.62915039 1.92407227 C-21.10675051 1.80850212 -17.5846444 1.68560051 -14.0625 1.5625 C-12.83080078 1.52318359 -11.59910156 1.48386719 -10.33007812 1.44335938 C-9.74516602 1.42241211 -9.74516602 1.42241211 -6.78515625 1.31640625 C-5.70113525 1.27974854 -4.61711426 1.24309082 -3.50024414 1.20532227 C-1 1 -1 1 0 0 Z " fill="#445155" transform="translate(94,48)"/>
<path d="M0 0 C0.33 0 0.66 0 1 0 C1 8.58 1 17.16 1 26 C-2.3 26.66 -5.6 27.32 -9 28 C-9 29.32 -9 30.64 -9 32 C-10.65 31.67 -12.3 31.34 -14 31 C-13.67 29.68 -13.34 28.36 -13 27 C-13.34611328 27.01160156 -13.34611328 27.01160156 -15.09765625 27.0703125 C-23.48047334 27.22493627 -31.77625838 26.70363957 -40 25 C-42 23 -42 23 -42.125 19.875 C-42.08375 18.92625 -42.0425 17.9775 -42 17 C-41.67 18.32 -41.34 19.64 -41 21 C-36.72010435 22.02771586 -32.52370977 22.19771018 -28.14453125 22.28125 C-27.40168381 22.29965942 -26.65883636 22.31806885 -25.89347839 22.33703613 C-22.72998823 22.41539398 -19.56630278 22.48365781 -16.40258789 22.55224609 C-14.08729365 22.60391301 -11.77218432 22.66115278 -9.45703125 22.71875 C-9.09818092 22.72553772 -9.09818092 22.72553772 -7.28218079 22.7598877 C-2.2257737 22.88711315 -2.2257737 22.88711315 0 24 C0 16.08 0 8.16 0 0 Z " fill="#405254" transform="translate(206,74)"/>
<path d="M0 0 C0 1.65 0 3.3 0 5 C-3.10046489 6.80510193 -5.34194277 7.24781574 -8.9140625 7.23046875 C-9.83960937 7.22853516 -10.76515625 7.22660156 -11.71875 7.22460938 C-12.6778125 7.21236328 -13.636875 7.20011719 -14.625 7.1875 C-15.59179688 7.18685547 -16.55859375 7.18621094 -17.5546875 7.18554688 C-24.71895995 7.14052002 -24.71895995 7.14052002 -27 6 C-29.37123246 5.76970044 -31.74741943 5.58880058 -34.125 5.4375 C-35.40632813 5.35371094 -36.68765625 5.26992187 -38.0078125 5.18359375 C-38.50152344 5.15330078 -38.50152344 5.15330078 -41 5 C-40.67 4.34 -40.34 3.68 -40 3 C-38.96069336 2.98018066 -37.92138672 2.96036133 -36.85058594 2.93994141 C-32.98885164 2.86377876 -29.1274889 2.775078 -25.26611328 2.68261719 C-23.59594059 2.64437143 -21.92568677 2.60951085 -20.25537109 2.578125 C-17.85224443 2.53237839 -15.44967416 2.47440075 -13.046875 2.4140625 C-12.30193787 2.40251129 -11.55700073 2.39096008 -10.78948975 2.37905884 C-6.96386979 2.27053334 -3.32967229 0 0 0 Z " fill="#4C5453" transform="translate(85,94)"/>
<path d="M0 0 C2.88305128 0.59925491 4.99659057 1.45146232 7.453125 3.06640625 C8.071875 3.46923828 8.690625 3.87207031 9.328125 4.28710938 C9.96234375 4.70798828 10.5965625 5.12886719 11.25 5.5625 C11.8996875 5.98724609 12.549375 6.41199219 13.21875 6.84960938 C14.81578918 7.8947306 16.4083442 8.94669837 18 10 C17.54625 10.433125 17.0925 10.86625 16.625 11.3125 C15 13 15 13 13 16 C10.4913197 14.40818262 7.99355682 12.80269582 5.5 11.1875 C4.78457031 10.73568359 4.06914062 10.28386719 3.33203125 9.81835938 C2.65527344 9.37685547 1.97851562 8.93535156 1.28125 8.48046875 C0.65283203 8.07723389 0.02441406 7.67399902 -0.62304688 7.25854492 C-1.07744141 6.8432251 -1.53183594 6.42790527 -2 6 C-2 3 -2 3 0 0 Z " fill="#6F8EA9" transform="translate(124,128)"/>
<path d="M0 0 C2.64 0 5.28 0 8 0 C8 9.57 8 19.14 8 29 C5.36 29 2.72 29 0 29 C1.32 28.67 2.64 28.34 4 28 C4 19.09 4 10.18 4 1 C2.68 0.67 1.36 0.34 0 0 Z " fill="#82A775" transform="translate(147,106)"/>
<path d="M0 0 C0.825 0.165 0.825 0.165 5 1 C4.34 6.61 3.68 12.22 3 18 C2.34 17.67 1.68 17.34 1 17 C-0.88472859 16.84655791 -2.77427874 16.75040429 -4.6640625 16.68359375 C-5.78554687 16.64169922 -6.90703125 16.59980469 -8.0625 16.55664062 C-9.238125 16.51732422 -10.41375 16.47800781 -11.625 16.4375 C-12.80835937 16.39431641 -13.99171875 16.35113281 -15.2109375 16.30664062 C-18.14050328 16.20032574 -21.07015588 16.09829358 -24 16 C-24 15.67 -24 15.34 -24 15 C-20.535 14.835 -20.535 14.835 -3 14 C-2.67 11.36 -2.34 8.72 -2 6 C-1.38761101 3.98271862 -0.74023321 1.97395523 0 0 Z " fill="#235563" transform="translate(92,176)"/>
<path d="M0 0 C4.43737712 -0.08690253 8.87453634 -0.14035926 13.3125 -0.1875 C14.57513672 -0.21263672 15.83777344 -0.23777344 17.13867188 -0.26367188 C18.34716797 -0.27333984 19.55566406 -0.28300781 20.80078125 -0.29296875 C21.91622314 -0.3086792 23.03166504 -0.32438965 24.1809082 -0.34057617 C27 0 27 0 30 3 C20.43 3 10.86 3 1 3 C0.67 2.01 0.34 1.02 0 0 Z " fill="#B28B60" transform="translate(107,88)"/>
<path d="M0 0 C0.33 1.32 0.66 2.64 1 4 C5.18276251 4.98852503 9.19713486 5.19673284 13.48828125 5.31640625 C13.8398806 5.3267968 13.8398806 5.3267968 15.6191864 5.37937927 C17.85019817 5.44440115 20.08132069 5.50353776 22.3125 5.5625 C23.83139134 5.60573036 25.35027177 5.64934605 26.86914062 5.69335938 C30.5793112 5.80003334 34.28960421 5.90143221 38 6 C38 6.33 38 6.66 38 7 C32.74894558 7.02464928 27.49792455 7.04283568 22.24682617 7.05493164 C20.45905979 7.05997218 18.67129755 7.06680454 16.88354492 7.07543945 C14.31948832 7.0875173 11.75548603 7.09323094 9.19140625 7.09765625 C8.78932198 7.10023689 8.78932198 7.10023689 6.75453186 7.11329651 C4.83598285 7.11349215 2.91754632 7.06201983 1 7 C0 6 0 6 -0.0625 2.9375 C-0.041875 1.968125 -0.02125 0.99875 0 0 Z " fill="#5C5F52" transform="translate(164,91)"/>
<path d="M0 0 C0 1.65 0 3.3 0 5 C-12.54 4.67 -25.08 4.34 -38 4 C-38 3.67 -38 3.34 -38 3 C-37.0212793 2.98018066 -36.04255859 2.96036133 -35.03417969 2.93994141 C-31.39606403 2.86375376 -27.75834147 2.77505705 -24.12060547 2.68261719 C-22.54744235 2.64438171 -20.97419342 2.60951934 -19.40087891 2.578125 C-17.13673277 2.53235578 -14.87317453 2.47438239 -12.609375 2.4140625 C-11.90818542 2.40251129 -11.20699585 2.39096008 -10.48455811 2.37905884 C-6.75233944 2.2667633 -3.25818501 0 0 0 Z " fill="#5F6156" transform="translate(85,94)"/>
<path d="M0 0 C0 0.33 0 0.66 0 1 C-2.97 1.66 -5.94 2.32 -9 3 C-9 4.32 -9 5.64 -9 7 C-10.65 6.67 -12.3 6.34 -14 6 C-13.67 4.68 -13.34 3.36 -13 2 C-16.96 2 -20.92 2 -25 2 C-25 1.67 -25 1.34 -25 1 C-22.33349537 0.83031334 -19.66684474 0.66418179 -17 0.5 C-16.25621094 0.45230469 -15.51242188 0.40460938 -14.74609375 0.35546875 C-9.82037776 0.05564256 -4.93485224 -0.04486229 0 0 Z " fill="#2D4553" transform="translate(206,99)"/>
<path d="M0 0 C4.94835645 3.67227599 7.62609569 7.14858363 10.375 12.625 C10.72949219 13.29273437 11.08398438 13.96046875 11.44921875 14.6484375 C12.98185989 17.60720418 14 19.62348765 14 23 C13.01 23.33 12.02 23.66 11 24 C10.78085938 23.154375 10.56171875 22.30875 10.3359375 21.4375 C8.51433524 14.92119925 6.71644238 9.74210281 2.26953125 4.5859375 C1 3 1 3 0 0 Z " fill="#B8B65C" transform="translate(196,55)"/>
<path d="M0 0 C0.33 0 0.66 0 1 0 C1.01417969 0.65484375 1.02835938 1.3096875 1.04296875 1.984375 C1.40314665 8.87642783 3.03815151 14.21811656 5.94140625 20.46875 C7 23 7 23 7 26 C-2 14.25 -2 14.25 -2 8 C-1.34 8 -0.68 8 0 8 C0 5.36 0 2.72 0 0 Z " fill="#6BAD75" transform="translate(41,156)"/>
<path d="M0 0 C0.66 0.33 1.32 0.66 2 1 C-2.62 5.62 -7.24 10.24 -12 15 C-12.66 14.67 -13.32 14.34 -14 14 C-9.61932717 8.89662734 -5.32423478 4.12628195 0 0 Z " fill="#35526A" transform="translate(51,31)"/>
<path d="M0 0 C0.33 0.66 0.66 1.32 1 2 C0.2578125 3.734375 0.2578125 3.734375 -0.875 5.75 C-2.68408581 9.16854835 -3.61120117 12.11201168 -4 16 C-4.99 16 -5.98 16 -7 16 C-7.33 15.34 -7.66 14.68 -8 14 C-6.94589776 11.73574127 -5.84861906 9.60685517 -4.625 7.4375 C-4.295 6.83486328 -3.965 6.23222656 -3.625 5.61132812 C-1.17569314 1.17569314 -1.17569314 1.17569314 0 0 Z " fill="#9C9460" transform="translate(47,61)"/>
<path d="M0 0 C4.62 0 9.24 0 14 0 C13.67 0.99 13.34 1.98 13 3 C9.04 3 5.08 3 1 3 C0.67 2.01 0.34 1.02 0 0 Z " fill="#9D7F6A" transform="translate(107,88)"/>
<path d="M0 0 C1.65 0.33 3.3 0.66 5 1 C4.67 2.65 4.34 4.3 4 6 C2.35 5.67 0.7 5.34 -1 5 C-0.67 3.35 -0.34 1.7 0 0 Z " fill="#3A8781" transform="translate(92,176)"/>
<path d="M0 0 C1.77108948 1.12459671 3.54186236 2.24969203 5.3125 3.375 C6.29863281 4.00148437 7.28476562 4.62796875 8.30078125 5.2734375 C10.21287929 6.49651613 12.1114034 7.7409356 14 9 C11.80078125 9.73828125 11.80078125 9.73828125 9 10 C6.54296875 8.41796875 6.54296875 8.41796875 4.1875 6.1875 C3.39730469 5.45917969 2.60710938 4.73085937 1.79296875 3.98046875 C0 2 0 2 0 0 Z " fill="#59A174" transform="translate(49,182)"/>
<path d="M0 0 C0.33 0.99 0.66 1.98 1 3 C-0.19625 3.556875 -1.3925 4.11375 -2.625 4.6875 C-6.6207175 6.67113911 -9.69184676 9.02266208 -13 12 C-11.50198648 8.38522825 -9.42462583 6.31379537 -6.5 3.75 C-5.7059375 3.04359375 -4.911875 2.3371875 -4.09375 1.609375 C-2 0 -2 0 0 0 Z " fill="#B5955F" transform="translate(61,49)"/>
<path d="M0 0 C0 3 0 3 -1.96875 5.04296875 C-2.8040625 5.75066406 -3.639375 6.45835937 -4.5 7.1875 C-5.3353125 7.90292969 -6.170625 8.61835938 -7.03125 9.35546875 C-7.35609375 9.62681641 -7.35609375 9.62681641 -9 11 C-9.33 10.34 -9.66 9.68 -10 9 C-10.66 8.67 -11.32 8.34 -12 8 C-11.73445312 7.87882813 -11.73445312 7.87882813 -10.390625 7.265625 C-6.26007376 5.30587441 -3.02889453 3.53371028 0 0 Z " fill="#1D9976" transform="translate(200,181)"/>
<path d="M0 0 C0.33 0 0.66 0 1 0 C2.20188103 3.94903767 2.5256232 5.88567882 0.73046875 9.69140625 C-0.78100695 12.17985453 -2.33988927 14.60847816 -4 17 C-4.33 16.34 -4.66 15.68 -5 15 C-4.566875 14.34 -4.13375 13.68 -3.6875 13 C-1.35971118 8.86170877 -0.76702063 4.64724263 0 0 Z " fill="#399C76" transform="translate(206,164)"/>
<path d="M0 0 C4.37859255 0.50522222 6.81651224 3.17827222 10 6 C9.67 6.66 9.34 7.32 9 8 C7.67968405 7.43457996 6.3688699 6.84693528 5.0625 6.25 C4.69705078 6.08757813 4.69705078 6.08757813 2.84765625 5.265625 C1 4 1 4 0.24609375 1.859375 C0.16488281 1.24578125 0.08367187 0.6321875 0 0 Z " fill="#DAC05B" transform="translate(186,48)"/>
<path d="M0 0 C3.3 0.33 6.6 0.66 10 1 C9.34 2.32 8.68 3.64 8 5 C5.36 3.68 2.72 2.36 0 1 C0 0.67 0 0.34 0 0 Z " fill="#E6B75B" transform="translate(133,25)"/>
<path d="M0 0 C0.33 1.32 0.66 2.64 1 4 C2.485 4.33 2.485 4.33 10 6 C10 6.33 10 6.66 10 7 C8.52093108 7.02689216 7.04172517 7.04634621 5.5625 7.0625 C5.15064453 7.06830078 5.15064453 7.06830078 3.06640625 7.09765625 C1 7 1 7 0 6 C-0.04080783 4.00041636 -0.04254356 1.99954746 0 0 Z " fill="#4C5754" transform="translate(164,91)"/>
<path d="M0 0 C0.33 0 0.66 0 1 0 C1 5.28 1 10.56 1 16 C0.67 16 0.34 16 0 16 C-0.06058594 15.24074219 -0.12117188 14.48148438 -0.18359375 13.69921875 C-0.26738281 12.70535156 -0.35117187 11.71148437 -0.4375 10.6875 C-0.51871094 9.70136719 -0.59992187 8.71523437 -0.68359375 7.69921875 C-1 5 -1 5 -2 2 C-1.34 1.34 -0.68 0.68 0 0 Z " fill="#C4BE6B" transform="translate(41,75)"/>
<path d="M0 0 C1.65 0 3.3 0 5 0 C4.38125 0.7425 3.7625 1.485 3.125 2.25 C1 5 1 5 -1 9 C-0.67 6.03 -0.34 3.06 0 0 Z " fill="#ADBD6F" transform="translate(30,104)"/>
<path d="M0 0 C0.33 0 0.66 0 1 0 C1.33 3.3 1.66 6.6 2 10 C0 9 0 9 -1.25 6.6875 C-2 4 -2 4 -1.125 1.6875 C-0.75375 1.130625 -0.3825 0.57375 0 0 Z " fill="#93B76A" transform="translate(219,102)"/>
<path d="M0 0 C1.32 0 2.64 0 4 0 C4 1.32 4 2.64 4 4 C2.35 3.67 0.7 3.34 -1 3 C-0.67 2.01 -0.34 1.02 0 0 Z " fill="#A6865B" transform="translate(193,102)"/>
</g>
</svg>
